<svg id="blip" xmlns="http://www.w3.org/2000/svg" xmlns:xlink="http://www.w3.org/1999/xlink"
  shape-rendering="geometricPrecision" text-rendering="geometricPrecision"
  viewBox="17.77 45.62 165.46 179.27">
  <path class="arrow-line"
    d="M185.63704,157.906799c-5.517929,34.27023-58.966649,68.42466-113.850005,74.091021"
    transform="matrix(-.79377 0 0 1.149147 231.388815-49.640413)" paint-order="stroke fill markers"
    fill="none" stroke="#000" stroke-width="3" stroke-linecap="round" stroke-dasharray="143.60385"></path>
  <line class="arrow-head-left" x1="3.370286" y1="-15.728001" x2="-3.370286" y2="15.728001"
    transform="matrix(-.194441-.980914 0.980914-.194441 158.157216 217.027476)" fill="none"
    stroke="#000" stroke-width="3" stroke-linecap="round" stroke-dasharray="32.170101"></line>
  <line class="arrow-head-right" x1="15.353525" y1="5.991619" x2="-15.353524" y2="-5.99162"
    transform="matrix(-.75514-.655564 0.655564-.75514 166.207118 202.16624)" fill="none"
    stroke="#000" stroke-width="3" stroke-linecap="round" stroke-dasharray="32.962416"></line>
  <ellipse class="dot" rx="3.55363" ry="2.626596"
    transform="matrix(.873513-.716851 0.812008 0.989466 85.226688 59.719531)"></ellipse>
  <path class="blip-1"
    d="M19.772307,115.977853c12.769736-9.405019,20.802727-43.027409,12.029999-56.025423-3.850975-3.750957-7.268285-1.629057-7.561713,2.978857-3.223208,10.931132,5.33812,42.821377,13.37139,55.859841c5.112495,5.668391,10.753445,3.473339,14.034427,1.191602c3.624233-4.139982,4.637095-12.070408,2.118404-17.079633-1.151273-4.844319-5.682848-9.798104-9.532818-8.606017-3.929208-.093216-4.66966,4.945219-2.383205,8.076416c3.013002,4.338898,9.227868,8.040843,12.445624,7.149614c4.374713.893058,8.767473-3.180044,10.45962-5.560811c8.180817-18.385,8.507337-29.458388,7.546815-35.483268-.620805-8.189042-2.853384-15.175203-4.740135-17.284135-5.417984-6.817732-7.931377-2.505743-7.707286,1.616044-1.420795,16.7152,1.321586,24.05994,1.864666,28.715857.861561,3.491489,2.846443,18.050904,14.157562,25.215907c6.078053,2.481497,8.470625-3.753837,9.797618-7.944015c2.589376-10.487227,4.369228-23.844549,2.648006-24.891248-3.816102-2.722312-3.229364,6.00118-1.721204,13.372426c1.279346,4.889917.625865,10.731035,7.546815,11.916023s11.224683-3.341132,12.842824-9.400418c1.406049-8.7157-1.241284-22.547365-3.972007-24.758848-3.773246-2.674391-4.539641,1.660417.794401,7.546815c8.343287,13.915755,13.062382,27.51839,16.285232,40.514478"
    fill="none" stroke="#000" stroke-width="4" stroke-linecap="round" stroke-linejoin="round"
    stroke-dasharray="513.099365"></path>
  <path class="blip-2"
    d="M109.37292,82.513457c-.934201-6.822534,2.93182-17.806346,7.282015-20.389638c9.10446-5.069635,14.343283,1.429621,15.755629,5.053214.633656,1.625743,5.840981,13.057093-7.284838,19.633611"
    transform="matrix(1 0 0 1.033005 0.000001-2.371581)" fill="none" stroke="#000" stroke-width="4"
    stroke-linecap="round" stroke-linejoin="round" stroke-dasharray="65.071473"></path>
</svg>