<svg id="flick" xmlns="http://www.w3.org/2000/svg" xmlns:xlink="http://www.w3.org/1999/xlink"
  shape-rendering="geometricPrecision" text-rendering="geometricPrecision"
  viewBox="70.29 38.49 199.88 206.99">
  <path class="arrow-line"
    d="M188.623613,150c-5.517929,34.27023-61.953222,76.331459-116.836578,81.99782"
    paint-order="stroke fill markers" fill="none" stroke="#000" stroke-width="3"
    stroke-linecap="round" stroke-dasharray="150.420553"></path>
  <line class="arrow-head-left" x1="3.370286" y1="-15.728001" x2="-3.370286" y2="15.728001"
    transform="matrix(.894156 0.447756-.447756 0.894156 82.148087 219.172127)" fill="none"
    stroke="#000" stroke-width="3" stroke-linecap="round" stroke-dasharray="32.170101"></line>
  <line class="arrow-head-right" x1="15.353525" y1="5.991619" x2="-15.353524" y2="-5.99162"
    transform="translate(87.14056 237.98944)" fill="none" stroke="#000" stroke-width="3"
    stroke-linecap="round" stroke-dasharray="32.962416"></line>
  <path class="flick-1"
    d="M139.143984,69.105563c8.601057-1.189184,21.897007-11.965052,27.003819-20.810282c2.258162-6.395759-.566108-10.350652-7.359003-5.927161-12.936707,12.435391-30.203051,40.942118-33.430235,56.862753-1.867387,6.612025-3.03158,16.321915,1.608917,17.214889c5.242475-1.715264,10.354646-11.672766,11.960846-18.484944c2.314615-11.406374,1.862609-25.793104-.755274-27.897273s-.641309,9.068418,7.170637,18.437331c2.604408,2.556113,9.847623,5.023872,16.636449,1.196085c6.093151-2.902625,17.881696-12.658933,21.638258-19.137353c2.791821-3.496684,6.655523-9.722845,6.476544-13.23411.463789-2.492345.331313-6.230876-1.855179-6.840971-8.585886,3.829863-18.550168,18.859076-23.305683,28.523373-4.553896,8.547343-5.855149,13.988946-5.449588,22.030247q.405561,8.041301,8.821507,6.390779c7.893831-1.677285,17.46113-12.868601,22.357893-20.346866.207781-1.343253-.440865-2.416378-1.635598-1.117075-4.134716,4.496612-9.110892,13.731837-10.075679,21.109054-.250766,5.147372,3.212149,7.476207,5.678195,8.04411c9.546817-.779325,13.242045-6.159754,16.069369-9.534037"
    transform="translate(.000001 0)" fill="none" stroke="#000" stroke-width="4"
    stroke-linecap="round" stroke-linejoin="round" stroke-dasharray="438.765375"></path>
  <path class="flick-2"
    d="M219.688742,106.841195c3.267287-2.576112,3.696438-6.906685,2.190803-8.920102-1.056828-1.47734-3.021011-3.600289-7.198468-2.899383-5.38314.388848-13.442533,6.686255-14.525934,12.509209-1.879647,9.083302.61307,12.577629,3.328317,15.184896c1.550531,2.144625,6.226316,3.713947,9.897893,3.399277c6.651322-.194326,15.072467-8.998246,18.096149-13.997021"
    fill="none" stroke="#000" stroke-width="4" stroke-linecap="round" stroke-linejoin="round"
    stroke-dasharray="89.238399"></path>
  <path class="flick-3"
    d="M235.438376,102.512104c6.70272.680766,17.073544-7.57106,20.533912-12.889245c3.134797-5.139824,2.998638-12.503246,1.599659-13.997022-4.879153.26374-14.130067,15.375906-21.395446,25.594552-7.222809,12.958076-6.388347,25.690623-6.29866,29.593702c3.702602-7.27519,10.613787-17.076222,13.797064-19.095936c3.960756-3.655423,10.459291-4.62471,12.797276-.699851c2.136418,2.188464,3.552021,6.920162,1.199745,10.097851-2.569331,3.755291-9.68599,3.74079-13.997021,1.199744-.635092,6.59767,2.038054,15.603997,6.298659,17.19634c7.452494,5.018543,13.686535-3.954618,18.196127-9.697936"
    transform="translate(.000001 0.000001)" fill="none" stroke="#000" stroke-width="4"
    stroke-linecap="round" stroke-linejoin="round" stroke-dasharray="210.816107"></path>
  <ellipse class="dot" rx="3.55363" ry="2.626596"
    transform="matrix(1.108289 0.220446-.249709 1.255406 197.373679 74.165584)"></ellipse>
</svg>